{"title":"Bad Ass 2012 DVDRip Hr.Janno","uid":8043860,"size":733855280,"categoryP":"video","categoryS":"movies","magnet":"?xt=urn:btih:c95f68ee0aa417363af9c53eee78500bd187e1e1&amp;dn=Bad+Ass+2012+DVDRip+Hr.Janno&amp;tr=udp%3A%2F%2Ftracker.openbittorrent.com%3A80&amp;tr=udp%3A%2F%2Fopen.demonii.com%3A1337&amp;tr=udp%3A%2F%2Ftracker.coppersurfer.tk%3A6969&amp;tr=udp%3A%2F%2Fexodus.desync.com%3A6969","seeders":0,"leechers":1,"uploader":"Hr.Janno","files":-1,"time":1358703128,"description":"Screenshot: http://bayimg.com/jaIkIAaEM\n\n\n\n\normat                         : DivX\nFormat/Info                    : Hack of AVI\nFile size                      : 700 MiB\nDuration                       : 1h 26mn\nOverall bit rate               : 1 132 Kbps\n\nVideo\nID                             : 0\nFormat                         : MPEG-4 Visual\nFormat profile                 : Advanced Simple@L5\nFormat settings, BVOP          : 1\nFormat settings, QPel          : No\nFormat settings, GMC           : No warppoints\nFormat settings, Matrix        : Default (H.263)\nMuxing mode                    : Packed bitstream\nCodec ID                       : DX50\nCodec ID/Hint                  : DivX 5\nDuration                       : 1h 26mn\nBit rate                       : 994 Kbps\nWidth                          : 720 pixels\nHeight                         : 400 pixels\nDisplay aspect ratio           : 16:9\nFrame rate                     : 25.000 fps\nColor space                    : YUV\nChroma subsampling             : 4:2:0\nBit depth                      : 8 bits\nScan type                      : Progressive\nCompression mode               : Lossy\nBits/(Pixel*Frame)             : 0.138\nStream size                    : 615 MiB (88%)\nTitle                          : Video \nWriting library                : XviD 1.2.1 (UTC 2008-12-04)\n\nAudio\nID                             : 1\nFormat                         : MPEG Audio\nFormat version                 : Version 1\nFormat profile                 : Layer 3\nMode                           : Joint stereo\nMode extension                 : MS Stereo\nCodec ID                       : 55\nCodec ID/Hint                  : MP3\nDuration                       : 1h 26mn\nBit rate mode                  : Constant\nBit rate                       : 128 Kbps\nChannel(s)                     : 2 channels\nSampling rate                  : 48.0 KHz\nCompression mode               : Lossy\nStream size                    : 79.2 MiB (11%)\nAlignment                      : Split accross interleaves\nInterleave, duration           : 40 ms (1.00 video frame)\nInterleave, preload duration   : 500 ms\nTitle                          : Audio \nWriting library                : LAME3.98r","torrent":{"xt":"urn:btih:c95f68ee0aa417363af9c53eee78500bd187e1e1","amp;dn":"Bad+Ass+2012+DVDRip+Hr.Janno","amp;tr":["udp%3A%2F%2Ftracker.openbittorrent.com%3A80","udp%3A%2F%2Fopen.demonii.com%3A1337","udp%3A%2F%2Ftracker.coppersurfer.tk%3A6969","udp%3A%2F%2Fexodus.desync.com%3A6969"],"infoHash":"c95f68ee0aa417363af9c53eee78500bd187e1e1","infoHashBuffer":{"type":"Buffer","data":[201,95,104,238,10,164,23,54,58,249,197,62,238,120,80,11,209,135,225,225]},"announce":[],"urlList":[]}}